<svg width="146" height="23" viewBox="0 0 146 23" fill="none" xmlns="http://www.w3.org/2000/svg">
    <g clip-path="url(#clip0_14_3570)">
        <path
            d="M143.855 3.00917C143.774 3.34778 143.403 3.59481 142.971 3.59481C142.475 3.59481 142.072 3.27324 142.072 2.875C142.072 2.47676 142.475 2.15519 142.971 2.15519C143.401 2.15519 143.774 2.40222 143.853 2.74083L144.551 2.57472C144.394 1.91667 143.729 1.4375 142.969 1.4375C142.077 1.4375 141.353 2.08278 141.353 2.875C141.353 3.66722 142.079 4.3125 142.969 4.3125C143.729 4.3125 144.396 3.83333 144.551 3.17315L143.853 3.00704L143.855 3.00917Z"
            fill="white" />
        <path
            d="M142.958 0C141.374 0 140.083 1.29056 140.083 2.875C140.083 4.45944 141.374 5.75 142.958 5.75C144.543 5.75 145.833 4.45944 145.833 2.875C145.833 1.29056 144.543 0 142.958 0ZM142.958 5.03019C141.77 5.03019 140.803 4.06333 140.803 2.875C140.803 1.68667 141.77 0.719815 142.958 0.719815C144.147 0.719815 145.114 1.68667 145.114 2.875C145.114 4.06333 144.147 5.03019 142.958 5.03019Z"
            fill="white" />
        <path d="M23.1668 0H19.3335V3.83333H23.1668V0Z" fill="white" />
        <path
            d="M4.00008 5.75V3.83333H17.4167V0H4.00008H2.08341H0.166748V17.25H4.00008V9.58333H19.3334V17.25H23.1667V5.75H19.3334H4.00008Z"
            fill="white" />
        <path
            d="M34.6668 5.75C32.3753 5.75 30.3224 6.50389 28.9168 7.69861V5.75H25.0835V17.25H28.9168V11.5C28.9168 10.4416 31.0614 9.58333 33.7085 9.58333C36.3556 9.58333 38.5002 10.4416 38.5002 11.5V17.25H42.3335V11.5C42.3335 8.32472 38.9005 5.75 34.6668 5.75Z"
            fill="white" />
        <path
            d="M76.8334 7.69861C75.4279 6.50389 73.3749 5.75 71.0834 5.75C66.8497 5.75 63.4167 8.32472 63.4167 11.5C63.4167 14.6753 66.8497 17.25 71.0834 17.25C73.3749 17.25 75.4279 16.4961 76.8334 15.3014V17.25C76.8334 18.3084 74.6889 19.1667 72.0417 19.1667C69.3946 19.1667 67.2501 18.3084 67.2501 17.25H63.4167C63.4167 20.4253 67.2778 23 72.0417 23C76.8057 23 80.6667 20.4253 80.6667 17.25V5.75H76.8334V7.69861ZM72.0417 13.4167C69.3946 13.4167 67.2501 12.5584 67.2501 11.5C67.2501 10.4416 69.3946 9.58333 72.0417 9.58333C74.6889 9.58333 76.8334 10.4416 76.8334 11.5C76.8313 12.5606 74.6867 13.4167 72.0417 13.4167Z"
            fill="white" />
        <path
            d="M107.5 7.69861C106.095 6.50389 104.042 5.75 101.75 5.75C97.5165 5.75 94.0835 8.32472 94.0835 11.5C94.0835 14.6753 97.5165 17.25 101.75 17.25C104.042 17.25 106.095 16.4961 107.5 15.3014V17.25H111.333V5.75H107.5V7.69861ZM102.708 13.4167C100.061 13.4167 97.9168 12.5584 97.9168 11.5C97.9168 10.4416 100.061 9.58333 102.708 9.58333C105.356 9.58333 107.5 10.4416 107.5 11.5C107.498 12.5606 105.353 13.4167 102.708 13.4167Z"
            fill="white" />
        <path
            d="M94.0835 5.75C90.9487 5.75 88.1653 6.50389 86.4168 7.66667V5.75H82.5835V17.25H86.4168V10.5417C86.4168 10.0114 89.4196 9.58333 93.1252 9.58333C93.451 9.58333 93.7704 9.58759 94.0835 9.59398V5.75Z"
            fill="white" />
        <path
            d="M133.375 5.75C130.934 5.75 128.798 6.86806 127.625 8.53769C126.452 6.86806 124.316 5.75 121.875 5.75C119.997 5.75 118.301 6.41231 117.083 7.47713V5.75H113.25V17.25H117.083V11.5C117.083 10.4416 118.8 9.58333 120.917 9.58333C123.034 9.58333 124.75 10.4416 124.75 11.5V17.25H128.583V11.5C128.583 10.4416 130.3 9.58333 132.417 9.58333C134.534 9.58333 136.25 10.4416 136.25 11.5V17.25H140.083V11.5C140.083 8.32472 137.081 5.75 133.375 5.75Z"
            fill="white" />
        <path
            d="M61.4915 11.2551C61.319 8.19268 57.9584 5.75 53.8333 5.75C51.5419 5.75 49.4889 6.50389 48.0833 7.69861V5.75H44.25V17.25H48.0833V11.5C48.0833 10.4416 50.2279 9.58333 52.875 9.58333C55.5221 9.58333 57.6667 10.4416 57.6667 11.5V17.25H61.5V11.5C61.5 11.4212 61.4957 11.3445 61.4915 11.2679L61.5 11.2636L61.4915 11.2551Z"
            fill="white" />
    </g>
    <defs>
        <clipPath id="clip0_14_3570">
            <rect width="145.667" height="23" fill="white" transform="translate(0.166748)" />
        </clipPath>
    </defs>
</svg>